<mxfile host="app.diagrams.net" modified="2023-11-14T02:17:36.414Z" agent="Mozilla/5.0 (Windows NT 10.0; Win64; x64) AppleWebKit/537.36 (KHTML, like Gecko) Chrome/119.0.0.0 Safari/537.36 Edg/119.0.0.0" etag="r-Ml6XVDEDF7_AzU_poZ" version="22.1.0" type="github">
  <diagram name="Page-1" id="__jo237eDoNd_dnHYj20">
    <mxGraphModel dx="979" dy="571" grid="1" gridSize="10" guides="1" tooltips="1" connect="1" arrows="1" fold="1" page="1" pageScale="1" pageWidth="827" pageHeight="1169" math="0" shadow="0">
      <root>
        <mxCell id="0" />
        <mxCell id="1" parent="0" />
        <mxCell id="CErGSDE1GtDtCNloHeIF-9" value="" style="shape=image;verticalLabelPosition=bottom;verticalAlign=top;imageAspect=0;image=data:image/png,iVBORw0KGgoAAAANSUhEUgAAAJYAAAAuCAYAAADKmOD6AAAACXBIWXMAAA7EAAAOxAGVKw4bAAAF7GlUWHRYTUw6Y29tLmFkb2JlLnhtcAAAAAAAPD94cGFja2V0IGJlZ2luPSLvu78iIGlkPSJXNU0wTXBDZWhpSHpyZVN6TlRjemtjOWQiPz4gPHg6eG1wbWV0YSB4bWxuczp4PSJhZG9iZTpuczptZXRhLyIgeDp4bXB0az0iQWRvYmUgWE1QIENvcmUgNS42LWMxNDUgNzkuMTYzNDk5LCAyMDE4LzA4LzEzLTE2OjQwOjIyICAgICAgICAiPiA8cmRmOlJERiB4bWxuczpyZGY9Imh0dHA6Ly93d3cudzMub3JnLzE5OTkvMDIvMjItcmRmLXN5bnRheC1ucyMiPiA8cmRmOkRlc2NyaXB0aW9uIHJkZjphYm91dD0iIiB4bWxuczp4bXA9Imh0dHA6Ly9ucy5hZG9iZS5jb20veGFwLzEuMC8iIHhtbG5zOmRjPSJodHRwOi8vcHVybC5vcmcvZGMvZWxlbWVudHMvMS4xLyIgeG1sbnM6cGhvdG9zaG9wPSJodHRwOi8vbnMuYWRvYmUuY29tL3Bob3Rvc2hvcC8xLjAvIiB4bWxuczp4bXBNTT0iaHR0cDovL25zLmFkb2JlLmNvbS94YXAvMS4wL21tLyIgeG1sbnM6c3RFdnQ9Imh0dHA6Ly9ucy5hZG9iZS5jb20veGFwLzEuMC9zVHlwZS9SZXNvdXJjZUV2ZW50IyIgeG1wOkNyZWF0b3JUb29sPSJBZG9iZSBQaG90b3Nob3AgQ0MgMjAxOSAoV2luZG93cykiIHhtcDpDcmVhdGVEYXRlPSIyMDIzLTExLTE0VDA4OjUxOjE1KzA3OjAwIiB4bXA6TW9kaWZ5RGF0ZT0iMjAyMy0xMS0xNFQwODo1OToyMSswNzowMCIgeG1wOk1ldGFkYXRhRGF0ZT0iMjAyMy0xMS0xNFQwODo1OToyMSswNzowMCIgZGM6Zm9ybWF0PSJpbWFnZS9wbmciIHBob3Rvc2hvcDpDb2xvck1vZGU9IjMiIHBob3Rvc2hvcDpJQ0NQcm9maWxlPSJzUkdCIElFQzYxOTY2LTIuMSIgeG1wTU06SW5zdGFuY2VJRD0ieG1wLmlpZDpjMjM2NDg5Zi1hN2Y3LTIzNGQtYmZiOS1jMGMwNzEwMzY2ZDUiIHhtcE1NOkRvY3VtZW50SUQ9InhtcC5kaWQ6NjlmYThlMzItNGVkYy05MjRmLThiYTQtMDJhZmE1YzkzYTdmIiB4bXBNTTpPcmlnaW5hbERvY3VtZW50SUQ9InhtcC5kaWQ6NjlmYThlMzItNGVkYy05MjRmLThiYTQtMDJhZmE1YzkzYTdmIj4gPHhtcE1NOkhpc3Rvcnk+IDxyZGY6U2VxPiA8cmRmOmxpIHN0RXZ0OmFjdGlvbj0iY3JlYXRlZCIgc3RFdnQ6aW5zdGFuY2VJRD0ieG1wLmlpZDo2OWZhOGUzMi00ZWRjLTkyNGYtOGJhNC0wMmFmYTVjOTNhN2YiIHN0RXZ0OndoZW49IjIwMjMtMTEtMTRUMDg6NTE6MTUrMDc6MDAiIHN0RXZ0OnNvZnR3YXJlQWdlbnQ9IkFkb2JlIFBob3Rvc2hvcCBDQyAyMDE5IChXaW5kb3dzKSIvPiA8cmRmOmxpIHN0RXZ0OmFjdGlvbj0ic2F2ZWQiIHN0RXZ0Omluc3RhbmNlSUQ9InhtcC5paWQ6YzIzNjQ4OWYtYTdmNy0yMzRkLWJmYjktYzBjMDcxMDM2NmQ1IiBzdEV2dDp3aGVuPSIyMDIzLTExLTE0VDA4OjU5OjIxKzA3OjAwIiBzdEV2dDpzb2Z0d2FyZUFnZW50PSJBZG9iZSBQaG90b3Nob3AgQ0MgMjAxOSAoV2luZG93cykiIHN0RXZ0OmNoYW5nZWQ9Ii8iLz4gPC9yZGY6U2VxPiA8L3htcE1NOkhpc3Rvcnk+IDwvcmRmOkRlc2NyaXB0aW9uPiA8L3JkZjpSREY+IDwveDp4bXBtZXRhPiA8P3hwYWNrZXQgZW5kPSJyIj8+kUTA0wAABUtJREFUeJztnGuIVVUUx3+TZlloEQ5BJjSWFUllUGCT2cMeZFqSFYblB6UE60tE0gMxDFKCMouEsiT7UtlY5IMe00NEYpIJzNEJKpsyooc9NDNrfEwf9lh6zt737n3284znB4uB4Zy1/mvvfc89d511dgN9k9OBScCFwHnAcGA/cBSwB+gAtgKfACuBH6OorCgFDcAMYBPQY2hrgWuCK65InjuBPzBfUFnrAM4PrL0iQYYgvs5sF1TW5odMoiItmoG/US+O74HFwGTgLKC9xrEyWwccEyybiiSYjHpBfAhcJjnn5RrnqKwLOMVjHhUJcQ/qK9SYGuc9qzivnu1C/LKs6MM8inzyn9E493nFubo23mEeFQmhWhi3aJ7/muJ8E5vtJpWKVFhDfpJ/B8418NEq8VHEdK6OFYkzENhAfnK/QpQaTPhc4qeorbDIqSIyTcA28pPaBhxn6Gso0C3xZWPtwOCiyVXEYQzi2V52Ml8v6O9miS8Xth04s6CmisDchHwSF1n4XKTw6cL2A1daaKsIwCzkk/ewpd8vFX5d2u2WGuvRH7gImAJMB24DRgMDPMctPY8hn7AZln6vUPj1YfdbapXRDLQAOxUxdwJvAFd7iF16liIftAkOfD+h8O3LnnagGWAYsN4wdieiB60CeIv8AHUjLvMu6JT4921vWmqeahnf9tah1AxA3vLyE6ID1AVNEv+hbAPmZRGQP7baAtwLjOo9pkUj/rICsUvPUOBb8oOxCbe1oXGSGCGtqzdXXbKPnX4BbpAcN1Mzfiuis/aIYCTicUx2ENbifhDGS+KEtj/5/0qjogH4IHPe8hrH32EQfzNwUp34pedy5Mm/6ineOYp4Mew6hcbjgY2ZYx+ok9dDhrG34+72IjmmIU96gee4XyjixrBZGW1nAD9kjpmikdPbBWLvBcZq+C4V85Ana1uj0uFxRexYtrRX19jM/38DRmjkcyzidbWi8UOMeRCWI08wVOPcSEX8mNbG4Veqbei3QDc7iL9QM1aS9Ac+Jp9UjFbfZRIdqdgWzH4J3+oo7isGMZOhEfm9zTfAqRH0DEfcY8ReRFlbB/QzzOVSh/HXIy4ApWAEov6STeJTihUMXTFboimmrbTI5WuHOrYCJ1toCcIlwD7y4ltjijoEV+3JtrbYMo/7HOvZQcJvIqn6qJ6LKSrDMMQ9XsxFNcdRLqYPqHXsWkfanHEXcqFzY4pScCPxFtVMh3k0Abs9aEymHKF61296TFF1mE/4RTXVQx4TPWl9xINWI15ELqwML3e+R7hF5XM85njSvMSj5pqskojZg2ifLQONiGdoPhfUXuDiALn4+pCsDqD9P04EPpOI6ELcHJcJn2013yHqZyG4wGMeHYgPoVfOBn6VBC9VoS3DXNxPRjvha3YLHWmXmU7rT2FGA/9IgtbqGyoLbbibhDWBtR9kCPI+N5fm4h2Ew1DtR+XqxYHYZDsNitpLgXVn8XH1zZqzkolqP6oHXQVIhBXYDfhTwRXnaSRMAXierVDVJyDlGlVRrqL4QLuqprtgCf4XVg/wQlGBqv2oVC22fYHNmA9wtis0NtcTZmH1AO+aintH4uQvxM/avswCzAbWRzXdloHAz4RbXBuBQfVEDSbf2N+D2N/zNKt0y8Ek9Ad0YhyJWnxEuIXVg+iGVdbsVO/6dXDk7AOlu4/WuFgCNXmSsAvr4Dda7qmL6mHm+64zLgG1dv7rphx7I7ju1zKxaSCq5aMQ9Zd9iP7roxHFthbgbk+Jp0wn4gnDrkP+NwjRaj0BsSVS6uzo/bsbOBAo5gHgBMT7Bf3+BT+KksMIVIQpAAAAAElFTkSuQmCC" parent="1" vertex="1">
          <mxGeometry x="110" y="220" as="geometry" />
        </mxCell>
        <mxCell id="BzeBbHCNnfRTiSIPwvRz-3" value="&lt;b&gt;Cloud Layer&lt;/b&gt;" style="text;strokeColor=none;align=center;fillColor=none;html=1;verticalAlign=middle;whiteSpace=wrap;rounded=0;" vertex="1" parent="1">
          <mxGeometry x="30" y="50" width="60" height="30" as="geometry" />
        </mxCell>
        <mxCell id="BzeBbHCNnfRTiSIPwvRz-4" value="&lt;font style=&quot;font-size: 80px;&quot;&gt;{&lt;/font&gt;" style="text;strokeColor=none;align=center;fillColor=none;html=1;verticalAlign=middle;whiteSpace=wrap;rounded=0;fontColor=#FF4124;" vertex="1" parent="1">
          <mxGeometry x="70" y="40" width="60" height="30" as="geometry" />
        </mxCell>
        <mxCell id="BzeBbHCNnfRTiSIPwvRz-5" value="" style="shape=image;verticalLabelPosition=bottom;verticalAlign=top;imageAspect=0;aspect=fixed;image=data:image/png,iVBORw0KGgoAAAANSUhEUgAAAJYAAABQCAYAAAD7sIxLAAAACXBIWXMAABZ0AAAWdAEtIJO3AAAFHGlUWHRYTUw6Y29tLmFkb2JlLnhtcAAAAAAAPD94cGFja2V0IGJlZ2luPSLvu78iIGlkPSJXNU0wTXBDZWhpSHpyZVN6TlRjemtjOWQiPz4gPHg6eG1wbWV0YSB4bWxuczp4PSJhZG9iZTpuczptZXRhLyIgeDp4bXB0az0iQWRvYmUgWE1QIENvcmUgNS42LWMxNDUgNzkuMTYzNDk5LCAyMDE4LzA4LzEzLTE2OjQwOjIyICAgICAgICAiPiA8cmRmOlJERiB4bWxuczpyZGY9Imh0dHA6Ly93d3cudzMub3JnLzE5OTkvMDIvMjItcmRmLXN5bnRheC1ucyMiPiA8cmRmOkRlc2NyaXB0aW9uIHJkZjphYm91dD0iIiB4bWxuczp4bXA9Imh0dHA6Ly9ucy5hZG9iZS5jb20veGFwLzEuMC8iIHhtbG5zOmRjPSJodHRwOi8vcHVybC5vcmcvZGMvZWxlbWVudHMvMS4xLyIgeG1sbnM6cGhvdG9zaG9wPSJodHRwOi8vbnMuYWRvYmUuY29tL3Bob3Rvc2hvcC8xLjAvIiB4bWxuczp4bXBNTT0iaHR0cDovL25zLmFkb2JlLmNvbS94YXAvMS4wL21tLyIgeG1sbnM6c3RFdnQ9Imh0dHA6Ly9ucy5hZG9iZS5jb20veGFwLzEuMC9zVHlwZS9SZXNvdXJjZUV2ZW50IyIgeG1wOkNyZWF0b3JUb29sPSJBZG9iZSBQaG90b3Nob3AgQ0MgMjAxOSAoV2luZG93cykiIHhtcDpDcmVhdGVEYXRlPSIyMDIzLTExLTE0VDA4OjU0OjAzKzA3OjAwIiB4bXA6TW9kaWZ5RGF0ZT0iMjAyMy0xMS0xNFQwODo1OToxOSswNzowMCIgeG1wOk1ldGFkYXRhRGF0ZT0iMjAyMy0xMS0xNFQwODo1OToxOSswNzowMCIgZGM6Zm9ybWF0PSJpbWFnZS9wbmciIHBob3Rvc2hvcDpDb2xvck1vZGU9IjMiIHBob3Rvc2hvcDpJQ0NQcm9maWxlPSJzUkdCIElFQzYxOTY2LTIuMSIgeG1wTU06SW5zdGFuY2VJRD0ieG1wLmlpZDpmZTk3YzBmMi1lNzRhLWE0NDQtOTIzYS05YTQzY2RjN2Q1MDEiIHhtcE1NOkRvY3VtZW50SUQ9InhtcC5kaWQ6ZmU5N2MwZjItZTc0YS1hNDQ0LTkyM2EtOWE0M2NkYzdkNTAxIiB4bXBNTTpPcmlnaW5hbERvY3VtZW50SUQ9InhtcC5kaWQ6ZmU5N2MwZjItZTc0YS1hNDQ0LTkyM2EtOWE0M2NkYzdkNTAxIj4gPHhtcE1NOkhpc3Rvcnk+IDxyZGY6U2VxPiA8cmRmOmxpIHN0RXZ0OmFjdGlvbj0iY3JlYXRlZCIgc3RFdnQ6aW5zdGFuY2VJRD0ieG1wLmlpZDpmZTk3YzBmMi1lNzRhLWE0NDQtOTIzYS05YTQzY2RjN2Q1MDEiIHN0RXZ0OndoZW49IjIwMjMtMTEtMTRUMDg6NTQ6MDMrMDc6MDAiIHN0RXZ0OnNvZnR3YXJlQWdlbnQ9IkFkb2JlIFBob3Rvc2hvcCBDQyAyMDE5IChXaW5kb3dzKSIvPiA8L3JkZjpTZXE+IDwveG1wTU06SGlzdG9yeT4gPC9yZGY6RGVzY3JpcHRpb24+IDwvcmRmOlJERj4gPC94OnhtcG1ldGE+IDw/eHBhY2tldCBlbmQ9InIiPz6oowmZAAANRUlEQVR4nO2df1BUV5bHPzQtLQYFIoj8UEqkxUjpgD9WzTokqWRmkx01GtasuhFEE012ZoxlxtrZErNuNMous5msyRpTTGUHM5kqUzKulRWS2YQYoLIjliuMMPEHri6KEX8DQgPSnP3jdlNP0ipgN5eG96l6xevux+tzz/m+++67fe+5AZjci2jge0AKMBGYAEQBo4ARwDCgHXACDqAOuAGcdm1/Ao673jMZ4swGtgKHUaKRB9wagd8DPwem9mM5tBKg24ABwlggA1iOqqG6sFgsTJkyBbvdjt1uJzo6moiICEaMGIHVaqW9vZ3Ozk4aGhq4cOECly9f5syZM5w8eZLa2lpP3/UH4LfAHqDB1wUz0cMk4F+BZgy1zOTJk+Xll1+WgoICqa2tlb7gdDrl9OnTsmfPHlm9erUkJCR0r8muAjtQt1aTQcLDwL9gCHRYWJisXbtWSkpK+iSknlBUVCSZmZlis9mMAmsCsoEgbd4w8QovAddwBTYmJkZ27Ngh165d85mgunP+/HnJzs6WsLAwo8DOAgs1+sWkj8QAB3EFMjg4WLZs2SItLS39JqjuXLlyRV577bXut8hfAYH63GTSG36EeuQXQJYsWSIXLlzQJqjuHD9+XB5//HGjuKqBZI3+MukBG3EFzGazyYcffqhbR3clNzfXKC4nsEij30zuwS9xBSolJUVOnTqlWzv3paSkRKKioowCe0mrB02+w69wBee5557TrZdeUV9fL9OmTTOK61WtnjTp4l1cQXnllVd066RPtLe3S1pamlFcWVo9akI2rmCsXbtWtz4emDlz5hjF9UOtnh3CPIsrCMuWLdOtCa/gdDrlkUceMTbo47R6eAgShUtUM2bM0K0Hr3L16lUJDg52i+uUXjcPPcoBeeihh6SxsVG3FrxOaWmp8Zb4tlZPDyHW4XL6p59+qlsDPmPTpk1Gcc3Q6vEhwChU20NeeOEF3bH3OUlJSeYtsZ/4d1y96g6HQ3fcfU5lZaWx1vobva4fvIzF5eSdO3fqjnm/sXjxYuOYLhMfsAuQ8PBw3bHuV+rq6oy11jK9IfBPxgM/QPU6r0ZV/bMAi+vz24Dk5ubqjnW/8+yzz7qFdUJHYPyReFTv+R9wNco9bGeB/wbEYrHIrVu3dMe53zl69KjRH6k6AuUv2IBcoA2DiKxWqyQkJEhiYqKMHTv2OyJLT0/XHWNtJCYmuv3wS00xG/DMAc7gEktERISsX79eCgsL75jM4HA4pKqqSt555x2ZOXOmALJ//359kdXM1q1b3cK6qDN4A5W/xFADbd68WRoaGnrk2OLi4iF5G3RTVVVlrL3NEacGZuJyTGxsrJSXl+uOld9hGBT4E72hvBPL/Q/xGUHAfwHExMRQUVHBrFmzNJrjn6Slpbl35+i0ozs6hfUWEAZQUlJCRESERlP8l6lTu2btT9RpR3d0CWsM8GOAN998k4kTB5RP/IoJEya4d6cBG4C5qCfsIcnPAQkNDdXdRPF7Dh8+7Kmf7yLwEWoCrJY5iromRv4zMC4rK4v58+drMmFwEBUVxdixYwkLC8PhcHD9+nWAkajMNstQv1rEA+eBK/1ll6+yzcQCowErSrxBQCtQC3QCF4DhBw4cYOFCc1a5N6mqquLLL7/k448/pqysrPvHvwG2ASd9bYc3hJWCuq+nAEkoUU3Ac23YisrsMhrg1KlT2O12L5hg4okTJ06wd+9e8vPzOXv2rPGjf0I1RwYc30Ol4PkTPUg+FhgY6PH9pqYm3U2UIUFHR4fs3r1bxo8fb/R/FT4chdrbGusvgPXA08Y3Y2NjmT59OsnJycTFxTF58mQiIyOx2WxYLBZsNhvNzc3U19dz/vx5zp07h9PpZMuWLV4qhklPaGtr44033mD79u3Gt7OAX+uxCKaj0h12KX7ixImyYcMGOXTokNy+fVv3RWnSC77++uvutdcvdIhqi1FQaWlpsm/fPt2+MXlAGhoa5JlnnjGKaz1q/sCfobLz/JXrbwoQ7E1BhQOH3F9st9uloKBAtz9MvMzChQuN4mrAczv5CnAAeBmVDbHPJKD6PQSQdevWidPp1O0DEx8xf/78O4QUGhoqERERMmrUKE8iuwlsR/WV3RVPjfdxQCWqxuKjjz5i+fLlDyJSEz/g4MGDtLa2MmXKFOLi4rBardy+fZszZ85QWVnJ559/zr59+2hra3P/yyXgb4H9PTn/MFQSfAGktLRU98VkMoCoq6uTTZs2icViMdZgb/ZEWJ+7/6GsrEx3OUwGKCdOnJB58+YZxbXrXqJa6z5wz549um038QNWrVplFNdWT6IKdR+wZMkS3faa+BErV640iutJt6Dcjfd3gJ8EBwdz48YNbLYhO5zHpA+kpqZSUVEBKjN1BNBpAUKAVwA2b95sisqk13zyySfu3XDgZ6BGIMwHlgYGBrJ//36CgsyVN0x6x6hRo7hy5QpHjhwB1XOfY8F1X5w9ezYhISE67TPxY7Kzs927ocAzFtT6fDz11FO6bDIZBERHRzN37lz3yx9ZcPWwJyQkaDPKZHDw5JNdD4UpFlTVRWhoqDaDTAYHhtlWMRZcQ4gtFp1TDE0GAw8/3DXwYaQFqAe4dOmSNoNMBgeGrqogC64pQd0G25uY9Jqmpib3bqsFOAZQXFyszSCTwUFNTY17t84CfApQXl7OzZs3ddlkMggwVE5/tABfonJ58t577+myycTPaWho4IsvvnC/LLQADmA3QG5uri67TPyct956i87OTlCpPg+4ZysfA37W2tpKW1ub2Qtv0iuam5tZsGABTqcT1Do/RW5h3UKNcni0rKyMBQsWEBMTo8lME39j0aJFnDx5EqADlfqz3dgruhE1M4cnnniCc+fO9buBJv7H1q1bKSoqcr9cBTR5Oi4JV271MWPGyOnTp3UPUDQZwOTk5BhHj354PxHOcR8cEhIihw4d0m2/yQCjo6ND1qxZYxTV73taw30flW5IANm+fbvuspgMEPbu3SuTJk0yimpfT0XlZhKGNEXz5s3r13mGHR0d/fZdJnensbFRysvLZceOHZKamtp9VvTm3orKTSDwvvFkzz//vJSUlPikEE1NTbJr1y5JTEyU7Oxsn3yHyd2pqKiQxx57TJKSkmT69OmSkpIio0eP9jTN/j/xUm6tp4EK48kfffRRefvtt+Wbb755oMI0NjZKUVGRvPjiixIZGdl1/qG2VJxubt68KUFBQfdKoPe/wL8Bf94TwfQ28doq4Keo1DZdpKamMmvWLGbMmEF8fDx2u52QkBBGjhyJ1Wqls7OTW7du0dLSQm1tLbW1tVRWVlJRUcGRI0fcCVndtOFKJ/3BBx+QlZXVSxNN+kJaWhqlpaUA7cDfo3LFBgDfAt+g8nn4nKdRS+Ze5i4KHz58uERFRUlsbKxER0dLSEiIBAQE3OuK+Bp4DYhBPbpKWFiY7gvZaxw7dky3CXdl6dKlxjik94eA7sdDqJ7WbUARKityO/fPS1oPlAHvARmotElGYt3H+vsC4kePHu1q9Obl5ek25zusWLHCGJdtPlXLAxCAEsVs4IfA88BS4K9RApwL2OnZygkbcBX43Xff9bmDjx079sDtRSMXL16UjRs3fuei2rZtm9e+40Ho6OiQ9PR0o21DagTCQfohUUlhYWGXgzMyMqS4uLjP5zp8+LCsWbNGgoODjUErRdXoAsiKFSvE4XB4sQS9o7q6WpKTk432aclBqpv/weWAnJwcrzv5/fff93i7ttvtkpmZKXl5eVJaWiq1tbXS3NwsnZ2d0t7eLi0tLfLtt9/KV199Jfn5+bJ69Wqx2+2est/9o6Esv3V/NmHCBCksLPR6ee5HTk5O97buq/0UxwFHEKphL4AsWrTojlVX+8r169clIyPD6OByVILXw3gQWkBAgERGRkp8fLzExMTImDFjZNiwYXdrQ1ahHkRGeyjPq8ZjFy9eLBUVFV6QzL0pKCjoWpXWtdVhyA4zlPk1LqcEBwfL66+/LvX19b12cFtbm+zcubN7x99/cGe7bzbwd8AnqMft+z2MXEaNxM2mZ+sGpgAlxnOkp6dLUVGRV8V048YNycvLk7lz53a3dzdqmJSJi5XANQw/kmdlZUlBQYFcunTprg52OBxSVlYmGzZskNjYWKODW1EPCfciCLUW4PdRDyErgeWoh5KnXJ8N72N5MoAagz2SlJQk69atk88++0yuXr3aazHV1NRIfn6+ZGZmSnh4eHdBFQGP99HWXuGrRZp8STiqNvkxhqvOZrMxdepUxo0bR1RUFIGBgTQ2NlJXV0d1dTX19fXdz5MP/APwf/1muWcCgBXAS8A84wcjRowgOTmZ5ORkxo8fT1xcHKGhoVitVqxWK01NTVy+fJlr165RXV1NTU0NVVVV3c/vBH6HqqXMqVg9YAyqvVLK/W9V7u048AaQqMHenjATlXKx64Glj1sjavbVT4Hx/VoCF/5YY3kiHtVumYbquY9E/YDehGqknkQF64+a7OsLE1GLYc1ADcCMBOJQndKBqAzXt4Drrq0GOI366aXc9Z42/h/+GH+hV5GBJAAAAABJRU5ErkJggg==" vertex="1" parent="1">
          <mxGeometry x="140" y="25" width="150" height="80" as="geometry" />
        </mxCell>
        <mxCell id="BzeBbHCNnfRTiSIPwvRz-6" value="&lt;b&gt;3D Topdown&lt;/b&gt;" style="text;strokeColor=none;align=center;fillColor=none;html=1;verticalAlign=middle;whiteSpace=wrap;rounded=0;" vertex="1" parent="1">
          <mxGeometry x="185" y="50" width="60" height="30" as="geometry" />
        </mxCell>
        <mxCell id="BzeBbHCNnfRTiSIPwvRz-7" value="" style="shape=image;verticalLabelPosition=bottom;verticalAlign=top;imageAspect=0;aspect=fixed;image=data:image/png,iVBORw0KGgoAAAANSUhEUgAAAJYAAABQCAYAAAD7sIxLAAAACXBIWXMAABZ0AAAWdAEtIJO3AAAFHGlUWHRYTUw6Y29tLmFkb2JlLnhtcAAAAAAAPD94cGFja2V0IGJlZ2luPSLvu78iIGlkPSJXNU0wTXBDZWhpSHpyZVN6TlRjemtjOWQiPz4gPHg6eG1wbWV0YSB4bWxuczp4PSJhZG9iZTpuczptZXRhLyIgeDp4bXB0az0iQWRvYmUgWE1QIENvcmUgNS42LWMxNDUgNzkuMTYzNDk5LCAyMDE4LzA4LzEzLTE2OjQwOjIyICAgICAgICAiPiA8cmRmOlJERiB4bWxuczpyZGY9Imh0dHA6Ly93d3cudzMub3JnLzE5OTkvMDIvMjItcmRmLXN5bnRheC1ucyMiPiA8cmRmOkRlc2NyaXB0aW9uIHJkZjphYm91dD0iIiB4bWxuczp4bXA9Imh0dHA6Ly9ucy5hZG9iZS5jb20veGFwLzEuMC8iIHhtbG5zOmRjPSJodHRwOi8vcHVybC5vcmcvZGMvZWxlbWVudHMvMS4xLyIgeG1sbnM6cGhvdG9zaG9wPSJodHRwOi8vbnMuYWRvYmUuY29tL3Bob3Rvc2hvcC8xLjAvIiB4bWxuczp4bXBNTT0iaHR0cDovL25zLmFkb2JlLmNvbS94YXAvMS4wL21tLyIgeG1sbnM6c3RFdnQ9Imh0dHA6Ly9ucy5hZG9iZS5jb20veGFwLzEuMC9zVHlwZS9SZXNvdXJjZUV2ZW50IyIgeG1wOkNyZWF0b3JUb29sPSJBZG9iZSBQaG90b3Nob3AgQ0MgMjAxOSAoV2luZG93cykiIHhtcDpDcmVhdGVEYXRlPSIyMDIzLTExLTE0VDA4OjU0OjAzKzA3OjAwIiB4bXA6TW9kaWZ5RGF0ZT0iMjAyMy0xMS0xNFQwODo1OToxOSswNzowMCIgeG1wOk1ldGFkYXRhRGF0ZT0iMjAyMy0xMS0xNFQwODo1OToxOSswNzowMCIgZGM6Zm9ybWF0PSJpbWFnZS9wbmciIHBob3Rvc2hvcDpDb2xvck1vZGU9IjMiIHBob3Rvc2hvcDpJQ0NQcm9maWxlPSJzUkdCIElFQzYxOTY2LTIuMSIgeG1wTU06SW5zdGFuY2VJRD0ieG1wLmlpZDpmZTk3YzBmMi1lNzRhLWE0NDQtOTIzYS05YTQzY2RjN2Q1MDEiIHhtcE1NOkRvY3VtZW50SUQ9InhtcC5kaWQ6ZmU5N2MwZjItZTc0YS1hNDQ0LTkyM2EtOWE0M2NkYzdkNTAxIiB4bXBNTTpPcmlnaW5hbERvY3VtZW50SUQ9InhtcC5kaWQ6ZmU5N2MwZjItZTc0YS1hNDQ0LTkyM2EtOWE0M2NkYzdkNTAxIj4gPHhtcE1NOkhpc3Rvcnk+IDxyZGY6U2VxPiA8cmRmOmxpIHN0RXZ0OmFjdGlvbj0iY3JlYXRlZCIgc3RFdnQ6aW5zdGFuY2VJRD0ieG1wLmlpZDpmZTk3YzBmMi1lNzRhLWE0NDQtOTIzYS05YTQzY2RjN2Q1MDEiIHN0RXZ0OndoZW49IjIwMjMtMTEtMTRUMDg6NTQ6MDMrMDc6MDAiIHN0RXZ0OnNvZnR3YXJlQWdlbnQ9IkFkb2JlIFBob3Rvc2hvcCBDQyAyMDE5IChXaW5kb3dzKSIvPiA8L3JkZjpTZXE+IDwveG1wTU06SGlzdG9yeT4gPC9yZGY6RGVzY3JpcHRpb24+IDwvcmRmOlJERj4gPC94OnhtcG1ldGE+IDw/eHBhY2tldCBlbmQ9InIiPz6oowmZAAANRUlEQVR4nO2df1BUV5bHPzQtLQYFIoj8UEqkxUjpgD9WzTokqWRmkx01GtasuhFEE012ZoxlxtrZErNuNMous5msyRpTTGUHM5kqUzKulRWS2YQYoLIjliuMMPEHri6KEX8DQgPSnP3jdlNP0ipgN5eG96l6xevux+tzz/m+++67fe+5AZjci2jge0AKMBGYAEQBo4ARwDCgHXACDqAOuAGcdm1/Ao673jMZ4swGtgKHUaKRB9wagd8DPwem9mM5tBKg24ABwlggA1iOqqG6sFgsTJkyBbvdjt1uJzo6moiICEaMGIHVaqW9vZ3Ozk4aGhq4cOECly9f5syZM5w8eZLa2lpP3/UH4LfAHqDB1wUz0cMk4F+BZgy1zOTJk+Xll1+WgoICqa2tlb7gdDrl9OnTsmfPHlm9erUkJCR0r8muAjtQt1aTQcLDwL9gCHRYWJisXbtWSkpK+iSknlBUVCSZmZlis9mMAmsCsoEgbd4w8QovAddwBTYmJkZ27Ngh165d85mgunP+/HnJzs6WsLAwo8DOAgs1+sWkj8QAB3EFMjg4WLZs2SItLS39JqjuXLlyRV577bXut8hfAYH63GTSG36EeuQXQJYsWSIXLlzQJqjuHD9+XB5//HGjuKqBZI3+MukBG3EFzGazyYcffqhbR3clNzfXKC4nsEij30zuwS9xBSolJUVOnTqlWzv3paSkRKKioowCe0mrB02+w69wBee5557TrZdeUV9fL9OmTTOK61WtnjTp4l1cQXnllVd066RPtLe3S1pamlFcWVo9akI2rmCsXbtWtz4emDlz5hjF9UOtnh3CPIsrCMuWLdOtCa/gdDrlkUceMTbo47R6eAgShUtUM2bM0K0Hr3L16lUJDg52i+uUXjcPPcoBeeihh6SxsVG3FrxOaWmp8Zb4tlZPDyHW4XL6p59+qlsDPmPTpk1Gcc3Q6vEhwChU20NeeOEF3bH3OUlJSeYtsZ/4d1y96g6HQ3fcfU5lZaWx1vobva4fvIzF5eSdO3fqjnm/sXjxYuOYLhMfsAuQ8PBw3bHuV+rq6oy11jK9IfBPxgM/QPU6r0ZV/bMAi+vz24Dk5ubqjnW/8+yzz7qFdUJHYPyReFTv+R9wNco9bGeB/wbEYrHIrVu3dMe53zl69KjRH6k6AuUv2IBcoA2DiKxWqyQkJEhiYqKMHTv2OyJLT0/XHWNtJCYmuv3wS00xG/DMAc7gEktERISsX79eCgsL75jM4HA4pKqqSt555x2ZOXOmALJ//359kdXM1q1b3cK6qDN4A5W/xFADbd68WRoaGnrk2OLi4iF5G3RTVVVlrL3NEacGZuJyTGxsrJSXl+uOld9hGBT4E72hvBPL/Q/xGUHAfwHExMRQUVHBrFmzNJrjn6Slpbl35+i0ozs6hfUWEAZQUlJCRESERlP8l6lTu2btT9RpR3d0CWsM8GOAN998k4kTB5RP/IoJEya4d6cBG4C5qCfsIcnPAQkNDdXdRPF7Dh8+7Kmf7yLwEWoCrJY5iromRv4zMC4rK4v58+drMmFwEBUVxdixYwkLC8PhcHD9+nWAkajMNstQv1rEA+eBK/1ll6+yzcQCowErSrxBQCtQC3QCF4DhBw4cYOFCc1a5N6mqquLLL7/k448/pqysrPvHvwG2ASd9bYc3hJWCuq+nAEkoUU3Ac23YisrsMhrg1KlT2O12L5hg4okTJ06wd+9e8vPzOXv2rPGjf0I1RwYc30Ol4PkTPUg+FhgY6PH9pqYm3U2UIUFHR4fs3r1bxo8fb/R/FT4chdrbGusvgPXA08Y3Y2NjmT59OsnJycTFxTF58mQiIyOx2WxYLBZsNhvNzc3U19dz/vx5zp07h9PpZMuWLV4qhklPaGtr44033mD79u3Gt7OAX+uxCKaj0h12KX7ixImyYcMGOXTokNy+fVv3RWnSC77++uvutdcvdIhqi1FQaWlpsm/fPt2+MXlAGhoa5JlnnjGKaz1q/sCfobLz/JXrbwoQ7E1BhQOH3F9st9uloKBAtz9MvMzChQuN4mrAczv5CnAAeBmVDbHPJKD6PQSQdevWidPp1O0DEx8xf/78O4QUGhoqERERMmrUKE8iuwlsR/WV3RVPjfdxQCWqxuKjjz5i+fLlDyJSEz/g4MGDtLa2MmXKFOLi4rBardy+fZszZ85QWVnJ559/zr59+2hra3P/yyXgb4H9PTn/MFQSfAGktLRU98VkMoCoq6uTTZs2icViMdZgb/ZEWJ+7/6GsrEx3OUwGKCdOnJB58+YZxbXrXqJa6z5wz549um038QNWrVplFNdWT6IKdR+wZMkS3faa+BErV640iutJt6Dcjfd3gJ8EBwdz48YNbLYhO5zHpA+kpqZSUVEBKjN1BNBpAUKAVwA2b95sisqk13zyySfu3XDgZ6BGIMwHlgYGBrJ//36CgsyVN0x6x6hRo7hy5QpHjhwB1XOfY8F1X5w9ezYhISE67TPxY7Kzs927ocAzFtT6fDz11FO6bDIZBERHRzN37lz3yx9ZcPWwJyQkaDPKZHDw5JNdD4UpFlTVRWhoqDaDTAYHhtlWMRZcQ4gtFp1TDE0GAw8/3DXwYaQFqAe4dOmSNoNMBgeGrqogC64pQd0G25uY9Jqmpib3bqsFOAZQXFyszSCTwUFNTY17t84CfApQXl7OzZs3ddlkMggwVE5/tABfonJ58t577+myycTPaWho4IsvvnC/LLQADmA3QG5uri67TPyct956i87OTlCpPg+4ZysfA37W2tpKW1ub2Qtv0iuam5tZsGABTqcT1Do/RW5h3UKNcni0rKyMBQsWEBMTo8lME39j0aJFnDx5EqADlfqz3dgruhE1M4cnnniCc+fO9buBJv7H1q1bKSoqcr9cBTR5Oi4JV271MWPGyOnTp3UPUDQZwOTk5BhHj354PxHOcR8cEhIihw4d0m2/yQCjo6ND1qxZYxTV73taw30flW5IANm+fbvuspgMEPbu3SuTJk0yimpfT0XlZhKGNEXz5s3r13mGHR0d/fZdJnensbFRysvLZceOHZKamtp9VvTm3orKTSDwvvFkzz//vJSUlPikEE1NTbJr1y5JTEyU7Oxsn3yHyd2pqKiQxx57TJKSkmT69OmSkpIio0eP9jTN/j/xUm6tp4EK48kfffRRefvtt+Wbb755oMI0NjZKUVGRvPjiixIZGdl1/qG2VJxubt68KUFBQfdKoPe/wL8Bf94TwfQ28doq4Keo1DZdpKamMmvWLGbMmEF8fDx2u52QkBBGjhyJ1Wqls7OTW7du0dLSQm1tLbW1tVRWVlJRUcGRI0fcCVndtOFKJ/3BBx+QlZXVSxNN+kJaWhqlpaUA7cDfo3LFBgDfAt+g8nn4nKdRS+Ze5i4KHz58uERFRUlsbKxER0dLSEiIBAQE3OuK+Bp4DYhBPbpKWFiY7gvZaxw7dky3CXdl6dKlxjik94eA7sdDqJ7WbUARKityO/fPS1oPlAHvARmotElGYt3H+vsC4kePHu1q9Obl5ek25zusWLHCGJdtPlXLAxCAEsVs4IfA88BS4K9RApwL2OnZygkbcBX43Xff9bmDjx079sDtRSMXL16UjRs3fuei2rZtm9e+40Ho6OiQ9PR0o21DagTCQfohUUlhYWGXgzMyMqS4uLjP5zp8+LCsWbNGgoODjUErRdXoAsiKFSvE4XB4sQS9o7q6WpKTk432aclBqpv/weWAnJwcrzv5/fff93i7ttvtkpmZKXl5eVJaWiq1tbXS3NwsnZ2d0t7eLi0tLfLtt9/KV199Jfn5+bJ69Wqx2+2est/9o6Esv3V/NmHCBCksLPR6ee5HTk5O97buq/0UxwFHEKphL4AsWrTojlVX+8r169clIyPD6OByVILXw3gQWkBAgERGRkp8fLzExMTImDFjZNiwYXdrQ1ahHkRGeyjPq8ZjFy9eLBUVFV6QzL0pKCjoWpXWtdVhyA4zlPk1LqcEBwfL66+/LvX19b12cFtbm+zcubN7x99/cGe7bzbwd8AnqMft+z2MXEaNxM2mZ+sGpgAlxnOkp6dLUVGRV8V048YNycvLk7lz53a3dzdqmJSJi5XANQw/kmdlZUlBQYFcunTprg52OBxSVlYmGzZskNjYWKODW1EPCfciCLUW4PdRDyErgeWoh5KnXJ8N72N5MoAagz2SlJQk69atk88++0yuXr3aazHV1NRIfn6+ZGZmSnh4eHdBFQGP99HWXuGrRZp8STiqNvkxhqvOZrMxdepUxo0bR1RUFIGBgTQ2NlJXV0d1dTX19fXdz5MP/APwf/1muWcCgBXAS8A84wcjRowgOTmZ5ORkxo8fT1xcHKGhoVitVqxWK01NTVy+fJlr165RXV1NTU0NVVVV3c/vBH6HqqXMqVg9YAyqvVLK/W9V7u048AaQqMHenjATlXKx64Glj1sjavbVT4Hx/VoCF/5YY3kiHtVumYbquY9E/YDehGqknkQF64+a7OsLE1GLYc1ADcCMBOJQndKBqAzXt4Drrq0GOI366aXc9Z42/h/+GH+hV5GBJAAAAABJRU5ErkJggg==" vertex="1" parent="1">
          <mxGeometry x="350" y="25" width="150" height="80" as="geometry" />
        </mxCell>
        <mxCell id="BzeBbHCNnfRTiSIPwvRz-8" value="&lt;b&gt;Semi OpenWorld&lt;/b&gt;" style="text;strokeColor=none;align=center;fillColor=none;html=1;verticalAlign=middle;whiteSpace=wrap;rounded=0;" vertex="1" parent="1">
          <mxGeometry x="395" y="50" width="60" height="30" as="geometry" />
        </mxCell>
        <mxCell id="BzeBbHCNnfRTiSIPwvRz-9" value="" style="shape=image;verticalLabelPosition=bottom;verticalAlign=top;imageAspect=0;aspect=fixed;image=data:image/png,iVBORw0KGgoAAAANSUhEUgAAAJYAAABQCAYAAAD7sIxLAAAACXBIWXMAABZ0AAAWdAEtIJO3AAAFHGlUWHRYTUw6Y29tLmFkb2JlLnhtcAAAAAAAPD94cGFja2V0IGJlZ2luPSLvu78iIGlkPSJXNU0wTXBDZWhpSHpyZVN6TlRjemtjOWQiPz4gPHg6eG1wbWV0YSB4bWxuczp4PSJhZG9iZTpuczptZXRhLyIgeDp4bXB0az0iQWRvYmUgWE1QIENvcmUgNS42LWMxNDUgNzkuMTYzNDk5LCAyMDE4LzA4LzEzLTE2OjQwOjIyICAgICAgICAiPiA8cmRmOlJERiB4bWxuczpyZGY9Imh0dHA6Ly93d3cudzMub3JnLzE5OTkvMDIvMjItcmRmLXN5bnRheC1ucyMiPiA8cmRmOkRlc2NyaXB0aW9uIHJkZjphYm91dD0iIiB4bWxuczp4bXA9Imh0dHA6Ly9ucy5hZG9iZS5jb20veGFwLzEuMC8iIHhtbG5zOmRjPSJodHRwOi8vcHVybC5vcmcvZGMvZWxlbWVudHMvMS4xLyIgeG1sbnM6cGhvdG9zaG9wPSJodHRwOi8vbnMuYWRvYmUuY29tL3Bob3Rvc2hvcC8xLjAvIiB4bWxuczp4bXBNTT0iaHR0cDovL25zLmFkb2JlLmNvbS94YXAvMS4wL21tLyIgeG1sbnM6c3RFdnQ9Imh0dHA6Ly9ucy5hZG9iZS5jb20veGFwLzEuMC9zVHlwZS9SZXNvdXJjZUV2ZW50IyIgeG1wOkNyZWF0b3JUb29sPSJBZG9iZSBQaG90b3Nob3AgQ0MgMjAxOSAoV2luZG93cykiIHhtcDpDcmVhdGVEYXRlPSIyMDIzLTExLTE0VDA4OjU0OjAzKzA3OjAwIiB4bXA6TW9kaWZ5RGF0ZT0iMjAyMy0xMS0xNFQwODo1OToxOSswNzowMCIgeG1wOk1ldGFkYXRhRGF0ZT0iMjAyMy0xMS0xNFQwODo1OToxOSswNzowMCIgZGM6Zm9ybWF0PSJpbWFnZS9wbmciIHBob3Rvc2hvcDpDb2xvck1vZGU9IjMiIHBob3Rvc2hvcDpJQ0NQcm9maWxlPSJzUkdCIElFQzYxOTY2LTIuMSIgeG1wTU06SW5zdGFuY2VJRD0ieG1wLmlpZDpmZTk3YzBmMi1lNzRhLWE0NDQtOTIzYS05YTQzY2RjN2Q1MDEiIHhtcE1NOkRvY3VtZW50SUQ9InhtcC5kaWQ6ZmU5N2MwZjItZTc0YS1hNDQ0LTkyM2EtOWE0M2NkYzdkNTAxIiB4bXBNTTpPcmlnaW5hbERvY3VtZW50SUQ9InhtcC5kaWQ6ZmU5N2MwZjItZTc0YS1hNDQ0LTkyM2EtOWE0M2NkYzdkNTAxIj4gPHhtcE1NOkhpc3Rvcnk+IDxyZGY6U2VxPiA8cmRmOmxpIHN0RXZ0OmFjdGlvbj0iY3JlYXRlZCIgc3RFdnQ6aW5zdGFuY2VJRD0ieG1wLmlpZDpmZTk3YzBmMi1lNzRhLWE0NDQtOTIzYS05YTQzY2RjN2Q1MDEiIHN0RXZ0OndoZW49IjIwMjMtMTEtMTRUMDg6NTQ6MDMrMDc6MDAiIHN0RXZ0OnNvZnR3YXJlQWdlbnQ9IkFkb2JlIFBob3Rvc2hvcCBDQyAyMDE5IChXaW5kb3dzKSIvPiA8L3JkZjpTZXE+IDwveG1wTU06SGlzdG9yeT4gPC9yZGY6RGVzY3JpcHRpb24+IDwvcmRmOlJERj4gPC94OnhtcG1ldGE+IDw/eHBhY2tldCBlbmQ9InIiPz6oowmZAAANRUlEQVR4nO2df1BUV5bHPzQtLQYFIoj8UEqkxUjpgD9WzTokqWRmkx01GtasuhFEE012ZoxlxtrZErNuNMous5msyRpTTGUHM5kqUzKulRWS2YQYoLIjliuMMPEHri6KEX8DQgPSnP3jdlNP0ipgN5eG96l6xevux+tzz/m+++67fe+5AZjci2jge0AKMBGYAEQBo4ARwDCgHXACDqAOuAGcdm1/Ao673jMZ4swGtgKHUaKRB9wagd8DPwem9mM5tBKg24ABwlggA1iOqqG6sFgsTJkyBbvdjt1uJzo6moiICEaMGIHVaqW9vZ3Ozk4aGhq4cOECly9f5syZM5w8eZLa2lpP3/UH4LfAHqDB1wUz0cMk4F+BZgy1zOTJk+Xll1+WgoICqa2tlb7gdDrl9OnTsmfPHlm9erUkJCR0r8muAjtQt1aTQcLDwL9gCHRYWJisXbtWSkpK+iSknlBUVCSZmZlis9mMAmsCsoEgbd4w8QovAddwBTYmJkZ27Ngh165d85mgunP+/HnJzs6WsLAwo8DOAgs1+sWkj8QAB3EFMjg4WLZs2SItLS39JqjuXLlyRV577bXut8hfAYH63GTSG36EeuQXQJYsWSIXLlzQJqjuHD9+XB5//HGjuKqBZI3+MukBG3EFzGazyYcffqhbR3clNzfXKC4nsEij30zuwS9xBSolJUVOnTqlWzv3paSkRKKioowCe0mrB02+w69wBee5557TrZdeUV9fL9OmTTOK61WtnjTp4l1cQXnllVd066RPtLe3S1pamlFcWVo9akI2rmCsXbtWtz4emDlz5hjF9UOtnh3CPIsrCMuWLdOtCa/gdDrlkUceMTbo47R6eAgShUtUM2bM0K0Hr3L16lUJDg52i+uUXjcPPcoBeeihh6SxsVG3FrxOaWmp8Zb4tlZPDyHW4XL6p59+qlsDPmPTpk1Gcc3Q6vEhwChU20NeeOEF3bH3OUlJSeYtsZ/4d1y96g6HQ3fcfU5lZaWx1vobva4fvIzF5eSdO3fqjnm/sXjxYuOYLhMfsAuQ8PBw3bHuV+rq6oy11jK9IfBPxgM/QPU6r0ZV/bMAi+vz24Dk5ubqjnW/8+yzz7qFdUJHYPyReFTv+R9wNco9bGeB/wbEYrHIrVu3dMe53zl69KjRH6k6AuUv2IBcoA2DiKxWqyQkJEhiYqKMHTv2OyJLT0/XHWNtJCYmuv3wS00xG/DMAc7gEktERISsX79eCgsL75jM4HA4pKqqSt555x2ZOXOmALJ//359kdXM1q1b3cK6qDN4A5W/xFADbd68WRoaGnrk2OLi4iF5G3RTVVVlrL3NEacGZuJyTGxsrJSXl+uOld9hGBT4E72hvBPL/Q/xGUHAfwHExMRQUVHBrFmzNJrjn6Slpbl35+i0ozs6hfUWEAZQUlJCRESERlP8l6lTu2btT9RpR3d0CWsM8GOAN998k4kTB5RP/IoJEya4d6cBG4C5qCfsIcnPAQkNDdXdRPF7Dh8+7Kmf7yLwEWoCrJY5iromRv4zMC4rK4v58+drMmFwEBUVxdixYwkLC8PhcHD9+nWAkajMNstQv1rEA+eBK/1ll6+yzcQCowErSrxBQCtQC3QCF4DhBw4cYOFCc1a5N6mqquLLL7/k448/pqysrPvHvwG2ASd9bYc3hJWCuq+nAEkoUU3Ac23YisrsMhrg1KlT2O12L5hg4okTJ06wd+9e8vPzOXv2rPGjf0I1RwYc30Ol4PkTPUg+FhgY6PH9pqYm3U2UIUFHR4fs3r1bxo8fb/R/FT4chdrbGusvgPXA08Y3Y2NjmT59OsnJycTFxTF58mQiIyOx2WxYLBZsNhvNzc3U19dz/vx5zp07h9PpZMuWLV4qhklPaGtr44033mD79u3Gt7OAX+uxCKaj0h12KX7ixImyYcMGOXTokNy+fVv3RWnSC77++uvutdcvdIhqi1FQaWlpsm/fPt2+MXlAGhoa5JlnnjGKaz1q/sCfobLz/JXrbwoQ7E1BhQOH3F9st9uloKBAtz9MvMzChQuN4mrAczv5CnAAeBmVDbHPJKD6PQSQdevWidPp1O0DEx8xf/78O4QUGhoqERERMmrUKE8iuwlsR/WV3RVPjfdxQCWqxuKjjz5i+fLlDyJSEz/g4MGDtLa2MmXKFOLi4rBardy+fZszZ85QWVnJ559/zr59+2hra3P/yyXgb4H9PTn/MFQSfAGktLRU98VkMoCoq6uTTZs2icViMdZgb/ZEWJ+7/6GsrEx3OUwGKCdOnJB58+YZxbXrXqJa6z5wz549um038QNWrVplFNdWT6IKdR+wZMkS3faa+BErV640iutJt6Dcjfd3gJ8EBwdz48YNbLYhO5zHpA+kpqZSUVEBKjN1BNBpAUKAVwA2b95sisqk13zyySfu3XDgZ6BGIMwHlgYGBrJ//36CgsyVN0x6x6hRo7hy5QpHjhwB1XOfY8F1X5w9ezYhISE67TPxY7Kzs927ocAzFtT6fDz11FO6bDIZBERHRzN37lz3yx9ZcPWwJyQkaDPKZHDw5JNdD4UpFlTVRWhoqDaDTAYHhtlWMRZcQ4gtFp1TDE0GAw8/3DXwYaQFqAe4dOmSNoNMBgeGrqogC64pQd0G25uY9Jqmpib3bqsFOAZQXFyszSCTwUFNTY17t84CfApQXl7OzZs3ddlkMggwVE5/tABfonJ58t577+myycTPaWho4IsvvnC/LLQADmA3QG5uri67TPyct956i87OTlCpPg+4ZysfA37W2tpKW1ub2Qtv0iuam5tZsGABTqcT1Do/RW5h3UKNcni0rKyMBQsWEBMTo8lME39j0aJFnDx5EqADlfqz3dgruhE1M4cnnniCc+fO9buBJv7H1q1bKSoqcr9cBTR5Oi4JV271MWPGyOnTp3UPUDQZwOTk5BhHj354PxHOcR8cEhIihw4d0m2/yQCjo6ND1qxZYxTV73taw30flW5IANm+fbvuspgMEPbu3SuTJk0yimpfT0XlZhKGNEXz5s3r13mGHR0d/fZdJnensbFRysvLZceOHZKamtp9VvTm3orKTSDwvvFkzz//vJSUlPikEE1NTbJr1y5JTEyU7Oxsn3yHyd2pqKiQxx57TJKSkmT69OmSkpIio0eP9jTN/j/xUm6tp4EK48kfffRRefvtt+Wbb755oMI0NjZKUVGRvPjiixIZGdl1/qG2VJxubt68KUFBQfdKoPe/wL8Bf94TwfQ28doq4Keo1DZdpKamMmvWLGbMmEF8fDx2u52QkBBGjhyJ1Wqls7OTW7du0dLSQm1tLbW1tVRWVlJRUcGRI0fcCVndtOFKJ/3BBx+QlZXVSxNN+kJaWhqlpaUA7cDfo3LFBgDfAt+g8nn4nKdRS+Ze5i4KHz58uERFRUlsbKxER0dLSEiIBAQE3OuK+Bp4DYhBPbpKWFiY7gvZaxw7dky3CXdl6dKlxjik94eA7sdDqJ7WbUARKityO/fPS1oPlAHvARmotElGYt3H+vsC4kePHu1q9Obl5ek25zusWLHCGJdtPlXLAxCAEsVs4IfA88BS4K9RApwL2OnZygkbcBX43Xff9bmDjx079sDtRSMXL16UjRs3fuei2rZtm9e+40Ho6OiQ9PR0o21DagTCQfohUUlhYWGXgzMyMqS4uLjP5zp8+LCsWbNGgoODjUErRdXoAsiKFSvE4XB4sQS9o7q6WpKTk432aclBqpv/weWAnJwcrzv5/fff93i7ttvtkpmZKXl5eVJaWiq1tbXS3NwsnZ2d0t7eLi0tLfLtt9/KV199Jfn5+bJ69Wqx2+2est/9o6Esv3V/NmHCBCksLPR6ee5HTk5O97buq/0UxwFHEKphL4AsWrTojlVX+8r169clIyPD6OByVILXw3gQWkBAgERGRkp8fLzExMTImDFjZNiwYXdrQ1ahHkRGeyjPq8ZjFy9eLBUVFV6QzL0pKCjoWpXWtdVhyA4zlPk1LqcEBwfL66+/LvX19b12cFtbm+zcubN7x99/cGe7bzbwd8AnqMft+z2MXEaNxM2mZ+sGpgAlxnOkp6dLUVGRV8V048YNycvLk7lz53a3dzdqmJSJi5XANQw/kmdlZUlBQYFcunTprg52OBxSVlYmGzZskNjYWKODW1EPCfciCLUW4PdRDyErgeWoh5KnXJ8N72N5MoAagz2SlJQk69atk88++0yuXr3aazHV1NRIfn6+ZGZmSnh4eHdBFQGP99HWXuGrRZp8STiqNvkxhqvOZrMxdepUxo0bR1RUFIGBgTQ2NlJXV0d1dTX19fXdz5MP/APwf/1muWcCgBXAS8A84wcjRowgOTmZ5ORkxo8fT1xcHKGhoVitVqxWK01NTVy+fJlr165RXV1NTU0NVVVV3c/vBH6HqqXMqVg9YAyqvVLK/W9V7u048AaQqMHenjATlXKx64Glj1sjavbVT4Hx/VoCF/5YY3kiHtVumYbquY9E/YDehGqknkQF64+a7OsLE1GLYc1ADcCMBOJQndKBqAzXt4Drrq0GOI366aXc9Z42/h/+GH+hV5GBJAAAAABJRU5ErkJggg==" vertex="1" parent="1">
          <mxGeometry x="560" y="25" width="150" height="80" as="geometry" />
        </mxCell>
        <mxCell id="BzeBbHCNnfRTiSIPwvRz-10" value="&lt;b&gt;Multiple Level&lt;/b&gt;" style="text;strokeColor=none;align=center;fillColor=none;html=1;verticalAlign=middle;whiteSpace=wrap;rounded=0;" vertex="1" parent="1">
          <mxGeometry x="605" y="50" width="60" height="30" as="geometry" />
        </mxCell>
        <mxCell id="BzeBbHCNnfRTiSIPwvRz-11" value="" style="shape=image;verticalLabelPosition=bottom;verticalAlign=top;imageAspect=0;aspect=fixed;image=data:image/png,iVBORw0KGgoAAAANSUhEUgAAAJYAAAAuCAYAAADKmOD6AAAACXBIWXMAAA7EAAAOxAGVKw4bAAAF7GlUWHRYTUw6Y29tLmFkb2JlLnhtcAAAAAAAPD94cGFja2V0IGJlZ2luPSLvu78iIGlkPSJXNU0wTXBDZWhpSHpyZVN6TlRjemtjOWQiPz4gPHg6eG1wbWV0YSB4bWxuczp4PSJhZG9iZTpuczptZXRhLyIgeDp4bXB0az0iQWRvYmUgWE1QIENvcmUgNS42LWMxNDUgNzkuMTYzNDk5LCAyMDE4LzA4LzEzLTE2OjQwOjIyICAgICAgICAiPiA8cmRmOlJERiB4bWxuczpyZGY9Imh0dHA6Ly93d3cudzMub3JnLzE5OTkvMDIvMjItcmRmLXN5bnRheC1ucyMiPiA8cmRmOkRlc2NyaXB0aW9uIHJkZjphYm91dD0iIiB4bWxuczp4bXA9Imh0dHA6Ly9ucy5hZG9iZS5jb20veGFwLzEuMC8iIHhtbG5zOmRjPSJodHRwOi8vcHVybC5vcmcvZGMvZWxlbWVudHMvMS4xLyIgeG1sbnM6cGhvdG9zaG9wPSJodHRwOi8vbnMuYWRvYmUuY29tL3Bob3Rvc2hvcC8xLjAvIiB4bWxuczp4bXBNTT0iaHR0cDovL25zLmFkb2JlLmNvbS94YXAvMS4wL21tLyIgeG1sbnM6c3RFdnQ9Imh0dHA6Ly9ucy5hZG9iZS5jb20veGFwLzEuMC9zVHlwZS9SZXNvdXJjZUV2ZW50IyIgeG1wOkNyZWF0b3JUb29sPSJBZG9iZSBQaG90b3Nob3AgQ0MgMjAxOSAoV2luZG93cykiIHhtcDpDcmVhdGVEYXRlPSIyMDIzLTExLTE0VDA4OjUxOjE1KzA3OjAwIiB4bXA6TW9kaWZ5RGF0ZT0iMjAyMy0xMS0xNFQwODo1OToyMSswNzowMCIgeG1wOk1ldGFkYXRhRGF0ZT0iMjAyMy0xMS0xNFQwODo1OToyMSswNzowMCIgZGM6Zm9ybWF0PSJpbWFnZS9wbmciIHBob3Rvc2hvcDpDb2xvck1vZGU9IjMiIHBob3Rvc2hvcDpJQ0NQcm9maWxlPSJzUkdCIElFQzYxOTY2LTIuMSIgeG1wTU06SW5zdGFuY2VJRD0ieG1wLmlpZDpjMjM2NDg5Zi1hN2Y3LTIzNGQtYmZiOS1jMGMwNzEwMzY2ZDUiIHhtcE1NOkRvY3VtZW50SUQ9InhtcC5kaWQ6NjlmYThlMzItNGVkYy05MjRmLThiYTQtMDJhZmE1YzkzYTdmIiB4bXBNTTpPcmlnaW5hbERvY3VtZW50SUQ9InhtcC5kaWQ6NjlmYThlMzItNGVkYy05MjRmLThiYTQtMDJhZmE1YzkzYTdmIj4gPHhtcE1NOkhpc3Rvcnk+IDxyZGY6U2VxPiA8cmRmOmxpIHN0RXZ0OmFjdGlvbj0iY3JlYXRlZCIgc3RFdnQ6aW5zdGFuY2VJRD0ieG1wLmlpZDo2OWZhOGUzMi00ZWRjLTkyNGYtOGJhNC0wMmFmYTVjOTNhN2YiIHN0RXZ0OndoZW49IjIwMjMtMTEtMTRUMDg6NTE6MTUrMDc6MDAiIHN0RXZ0OnNvZnR3YXJlQWdlbnQ9IkFkb2JlIFBob3Rvc2hvcCBDQyAyMDE5IChXaW5kb3dzKSIvPiA8cmRmOmxpIHN0RXZ0OmFjdGlvbj0ic2F2ZWQiIHN0RXZ0Omluc3RhbmNlSUQ9InhtcC5paWQ6YzIzNjQ4OWYtYTdmNy0yMzRkLWJmYjktYzBjMDcxMDM2NmQ1IiBzdEV2dDp3aGVuPSIyMDIzLTExLTE0VDA4OjU5OjIxKzA3OjAwIiBzdEV2dDpzb2Z0d2FyZUFnZW50PSJBZG9iZSBQaG90b3Nob3AgQ0MgMjAxOSAoV2luZG93cykiIHN0RXZ0OmNoYW5nZWQ9Ii8iLz4gPC9yZGY6U2VxPiA8L3htcE1NOkhpc3Rvcnk+IDwvcmRmOkRlc2NyaXB0aW9uPiA8L3JkZjpSREY+IDwveDp4bXBtZXRhPiA8P3hwYWNrZXQgZW5kPSJyIj8+kUTA0wAABUtJREFUeJztnGuIVVUUx3+TZlloEQ5BJjSWFUllUGCT2cMeZFqSFYblB6UE60tE0gMxDFKCMouEsiT7UtlY5IMe00NEYpIJzNEJKpsyooc9NDNrfEwf9lh6zt737n3284znB4uB4Zy1/mvvfc89d511dgN9k9OBScCFwHnAcGA/cBSwB+gAtgKfACuBH6OorCgFDcAMYBPQY2hrgWuCK65InjuBPzBfUFnrAM4PrL0iQYYgvs5sF1TW5odMoiItmoG/US+O74HFwGTgLKC9xrEyWwccEyybiiSYjHpBfAhcJjnn5RrnqKwLOMVjHhUJcQ/qK9SYGuc9qzivnu1C/LKs6MM8inzyn9E493nFubo23mEeFQmhWhi3aJ7/muJ8E5vtJpWKVFhDfpJ/B8418NEq8VHEdK6OFYkzENhAfnK/QpQaTPhc4qeorbDIqSIyTcA28pPaBhxn6Gso0C3xZWPtwOCiyVXEYQzi2V52Ml8v6O9miS8Xth04s6CmisDchHwSF1n4XKTw6cL2A1daaKsIwCzkk/ewpd8vFX5d2u2WGuvRH7gImAJMB24DRgMDPMctPY8hn7AZln6vUPj1YfdbapXRDLQAOxUxdwJvAFd7iF16liIftAkOfD+h8O3LnnagGWAYsN4wdieiB60CeIv8AHUjLvMu6JT4921vWmqeahnf9tah1AxA3vLyE6ID1AVNEv+hbAPmZRGQP7baAtwLjOo9pkUj/rICsUvPUOBb8oOxCbe1oXGSGCGtqzdXXbKPnX4BbpAcN1Mzfiuis/aIYCTicUx2ENbifhDGS+KEtj/5/0qjogH4IHPe8hrH32EQfzNwUp34pedy5Mm/6ineOYp4Mew6hcbjgY2ZYx+ok9dDhrG34+72IjmmIU96gee4XyjixrBZGW1nAD9kjpmikdPbBWLvBcZq+C4V85Ana1uj0uFxRexYtrRX19jM/38DRmjkcyzidbWi8UOMeRCWI08wVOPcSEX8mNbG4Veqbei3QDc7iL9QM1aS9Ac+Jp9UjFbfZRIdqdgWzH4J3+oo7isGMZOhEfm9zTfAqRH0DEfcY8ReRFlbB/QzzOVSh/HXIy4ApWAEov6STeJTihUMXTFboimmrbTI5WuHOrYCJ1toCcIlwD7y4ltjijoEV+3JtrbYMo/7HOvZQcJvIqn6qJ6LKSrDMMQ9XsxFNcdRLqYPqHXsWkfanHEXcqFzY4pScCPxFtVMh3k0Abs9aEymHKF61296TFF1mE/4RTXVQx4TPWl9xINWI15ELqwML3e+R7hF5XM85njSvMSj5pqskojZg2ifLQONiGdoPhfUXuDiALn4+pCsDqD9P04EPpOI6ELcHJcJn2013yHqZyG4wGMeHYgPoVfOBn6VBC9VoS3DXNxPRjvha3YLHWmXmU7rT2FGA/9IgtbqGyoLbbibhDWBtR9kCPI+N5fm4h2Ew1DtR+XqxYHYZDsNitpLgXVn8XH1zZqzkolqP6oHXQVIhBXYDfhTwRXnaSRMAXierVDVJyDlGlVRrqL4QLuqprtgCf4XVg/wQlGBqv2oVC22fYHNmA9wtis0NtcTZmH1AO+aintH4uQvxM/avswCzAbWRzXdloHAz4RbXBuBQfVEDSbf2N+D2N/zNKt0y8Ek9Ad0YhyJWnxEuIXVg+iGVdbsVO/6dXDk7AOlu4/WuFgCNXmSsAvr4Dda7qmL6mHm+64zLgG1dv7rphx7I7ju1zKxaSCq5aMQ9Zd9iP7roxHFthbgbk+Jp0wn4gnDrkP+NwjRaj0BsSVS6uzo/bsbOBAo5gHgBMT7Bf3+BT+KksMIVIQpAAAAAElFTkSuQmCC" vertex="1" parent="1">
          <mxGeometry x="70" y="220" width="150" height="46" as="geometry" />
        </mxCell>
        <mxCell id="BzeBbHCNnfRTiSIPwvRz-12" value="&lt;b style=&quot;font-size: 18px;&quot;&gt;SinglePlayer&lt;/b&gt;" style="text;strokeColor=none;align=center;fillColor=none;html=1;verticalAlign=middle;whiteSpace=wrap;rounded=0;fontSize=18;" vertex="1" parent="1">
          <mxGeometry x="110" y="180" width="60" height="30" as="geometry" />
        </mxCell>
      </root>
    </mxGraphModel>
  </diagram>
</mxfile>
